<svg width="58" height="58" viewBox="0 0 58 58" fill="none" xmlns="http://www.w3.org/2000/svg">
<path d="M49.0988 28.6121C49.0988 27.3594 48.6012 26.158 47.7154 25.2722C46.8296 24.3864 45.6282 23.8887 44.3754 23.8887C44.2069 23.8887 44.0419 23.8978 43.8788 23.9141L50.3676 4.77954H22.7958L29.2737 23.8978C29.1794 23.8978 29.0834 23.8887 28.9873 23.8887C27.8608 23.8898 26.7717 24.2933 25.9164 25.0265C25.0611 25.7597 24.496 26.7743 24.3228 27.8874C24.1495 29.0006 24.3797 30.1389 24.9718 31.0973C25.5639 32.0557 26.4789 32.7711 27.5518 33.1144C26.5472 34.8444 25.2962 36.4191 23.838 37.7888C21.9404 39.6026 19.6862 41.0019 17.2187 41.8977C15.8361 41.242 14.7548 40.0847 14.1944 38.6608C13.6339 37.2369 13.6362 35.6531 14.2009 34.2309C14.3405 33.9046 14.4819 33.5747 14.6178 33.2449C15.6715 32.9969 16.6081 32.3948 17.2712 31.5393C17.9343 30.6837 18.2837 29.6264 18.261 28.5442C18.2382 27.462 17.8447 26.4204 17.1463 25.5934C16.4478 24.7665 15.4867 24.2043 14.4236 24.0008C13.3604 23.7973 12.2596 23.9649 11.3052 24.4755C10.3507 24.9861 9.60044 25.8089 9.1797 26.8062C8.75896 27.8035 8.69326 28.9151 8.99358 29.955C9.29389 30.995 9.94204 31.9004 10.8297 32.5199C9.32085 35.2537 8.17013 38.1705 7.40587 41.1981C6.76425 45.0678 7.40587 49.1731 10.7499 51.4949C18.5437 56.898 27.0063 48.1454 35.9274 45.9469C39.1609 45.1494 42.7097 45.278 45.5572 43.6269C46.5865 43.0416 47.4741 42.2366 48.1567 41.2692C48.8393 40.3018 49.3003 39.1958 49.5066 38.0299C49.6958 36.9195 49.66 35.7824 49.4013 34.6861C49.1425 33.5898 48.6662 32.5567 48.0004 31.648C48.711 30.7989 49.0999 29.7266 49.0988 28.6194V28.6121ZM33.7125 28.6375V28.6212C33.713 27.8085 33.5037 27.0095 33.1049 26.3014C32.706 25.5933 32.1312 25.0001 31.436 24.5793L36.5907 14.1375L41.7564 24.6754C41.1083 25.106 40.577 25.6904 40.2098 26.3764C39.8426 27.0624 39.651 27.8286 39.6521 28.6067C39.6521 28.6411 39.6521 28.6755 39.6521 28.71L33.7125 28.6375Z" fill="#1F1F1F"/>
<path d="M50.2534 28.6121C50.2512 27.2427 49.7716 25.9168 48.8973 24.8628C48.0229 23.8088 46.8084 23.0926 45.4629 22.8375L51.9771 3.625H21.1863L27.7113 22.8756C26.5716 23.1294 25.5334 23.7169 24.7291 24.5633C23.9248 25.4096 23.3909 26.4764 23.1954 27.6275C23 28.7786 23.1519 29.9619 23.6318 31.0263C24.1116 32.0907 24.8977 32.988 25.8897 33.6038C25.0702 34.8216 24.117 35.9439 23.0477 36.9496C21.3926 38.5326 19.448 39.7818 17.3202 40.629C16.3215 40.049 15.5644 39.1293 15.1871 38.0377C14.8098 36.946 14.8374 35.7552 15.2649 34.6822L15.3374 34.5136L15.4715 34.1964C16.679 33.7776 17.7171 32.9766 18.4286 31.915C19.1402 30.8533 19.4864 29.5887 19.4149 28.3127C19.3435 27.0366 18.8582 25.8186 18.0325 24.843C17.2069 23.8675 16.0858 23.1875 14.8392 22.906C13.5925 22.6246 12.288 22.757 11.1233 23.2833C9.95867 23.8095 8.99717 24.701 8.38443 25.8226C7.7717 26.9442 7.5411 28.2349 7.72755 29.4992C7.914 30.7636 8.50734 31.9328 9.41775 32.8298C9.222 33.2485 9.01537 33.6726 8.80331 34.1094C7.62865 36.2704 6.77391 38.5904 6.26581 40.9969C5.423 46.0719 6.78237 50.1374 10.092 52.4302C11.8712 53.7025 14.0056 54.3829 16.1929 54.375C20.0571 54.375 23.9667 52.4338 27.7929 50.5343C30.4661 49.0806 33.2865 47.9159 36.2065 47.0598C37.2837 46.8127 38.3725 46.6197 39.469 46.4816C41.791 46.2961 44.0553 45.6634 46.1372 44.6183C47.3118 43.9477 48.3244 43.0269 49.1034 41.9212C49.8824 40.8155 50.4087 39.552 50.6449 38.2202C51.0305 35.958 50.5864 33.6325 49.3942 31.6716C49.9583 30.7509 50.2545 29.6919 50.2534 28.6121ZM47.9461 28.6121C47.9461 29.3183 47.7366 30.0087 47.3443 30.5959C46.952 31.183 46.3943 31.6407 45.7419 31.911C45.0894 32.1812 44.3715 32.2519 43.6788 32.1141C42.9862 31.9764 42.35 31.6363 41.8506 31.1369C41.3513 30.6376 41.0112 30.0014 40.8734 29.3087C40.7356 28.6161 40.8064 27.8982 41.0766 27.2457C41.3469 26.5933 41.8045 26.0356 42.3917 25.6433C42.9789 25.2509 43.6692 25.0415 44.3754 25.0415C45.322 25.0429 46.2293 25.4196 46.8987 26.0889C47.568 26.7582 47.9446 27.6656 47.9461 28.6121ZM48.7562 5.93231L43.0034 22.8973C42.7571 22.9573 42.515 23.033 42.2784 23.1239L36.5962 11.5239L30.8959 23.055C30.6476 22.9694 30.3939 22.9004 30.1364 22.8484L24.4035 5.93231H48.7562ZM28.9873 25.0415C29.6935 25.0415 30.3839 25.2509 30.971 25.6433C31.5582 26.0356 32.0159 26.5933 32.2861 27.2457C32.5564 27.8982 32.6271 28.6161 32.4893 29.3087C32.3515 30.0014 32.0115 30.6376 31.5121 31.1369C31.0128 31.6363 30.3765 31.9764 29.6839 32.1141C28.9913 32.2519 28.2733 32.1812 27.6209 31.911C26.9684 31.6407 26.4108 31.183 26.0184 30.5959C25.6261 30.0087 25.4167 29.3183 25.4167 28.6121C25.4176 27.6654 25.7941 26.7578 26.4636 26.0884C27.133 25.419 28.0406 25.0425 28.9873 25.0415ZM13.5394 25.0759C14.2456 25.0759 14.9359 25.2854 15.5231 25.6777C16.1103 26.07 16.5679 26.6277 16.8382 27.2801C17.1085 27.9326 17.1792 28.6505 17.0414 29.3432C16.9036 30.0358 16.5635 30.672 16.0642 31.1714C15.5648 31.6707 14.9286 32.0108 14.236 32.1486C13.5433 32.2864 12.8254 32.2156 12.173 31.9454C11.5205 31.6751 10.9629 31.2175 10.5705 30.6303C10.1782 30.0431 9.96875 29.3528 9.96875 28.6466C9.9697 27.7002 10.346 26.7928 11.015 26.1235C11.684 25.4541 12.593 25.0774 13.5394 25.0759ZM48.3702 37.8251C48.1913 38.8242 47.7947 39.7718 47.2087 40.6007C46.6226 41.4295 45.8614 42.1192 44.979 42.6209C43.149 43.5112 41.1667 44.0462 39.1373 44.1978C37.9918 44.3628 36.8082 44.5331 35.6501 44.8195C32.567 45.7126 29.5893 46.9359 26.7688 48.4681C21.0341 51.3155 16.0751 53.7751 11.4133 50.5398C7.99312 48.169 8.15081 43.7828 8.54956 41.3794C9.01811 39.1912 9.8014 37.0825 10.875 35.119C11.0417 34.7746 11.2049 34.4393 11.3644 34.1058C11.8515 34.2997 12.3623 34.4277 12.8832 34.4864C12.4212 36.1158 12.5497 37.8561 13.2462 39.3999C13.9426 40.9436 15.1622 42.1917 16.6895 42.9236L17.1336 43.152L17.603 42.9834C20.2223 42.0389 22.6152 40.5572 24.6282 38.6334C25.9574 37.3818 27.1252 35.9692 28.1046 34.4284C29.3573 34.619 30.638 34.3994 31.7556 33.8024C32.8732 33.2054 33.7679 32.2631 34.3061 31.116C34.8442 29.9689 34.9971 28.6785 34.7418 27.4375C34.4866 26.1964 33.8368 25.0711 32.8896 24.2295L36.5835 16.7602L40.3154 24.3727C39.2536 25.396 38.6157 26.7814 38.5283 28.2534C38.441 29.7255 38.9108 31.1766 39.8442 32.3182C40.7776 33.4599 42.1064 34.2086 43.5665 34.4155C45.0265 34.6225 46.511 34.2725 47.7249 33.4352C48.3982 34.793 48.6235 36.3293 48.3684 37.8233L48.3702 37.8251Z" fill="#8B8989"/>
</svg>
