<svg width="58" height="58" viewBox="0 0 58 58" fill="none" xmlns="http://www.w3.org/2000/svg">
<g clipPath="url(#clip0_4_54)">
<path d="M51.1125 14.2583L31.0542 2.9C30.4114 2.59823 29.7101 2.44177 29 2.44177C28.2899 2.44177 27.5886 2.59823 26.9458 2.9L6.8875 14.2583C6.27078 14.6143 5.75718 15.1245 5.39706 15.7388C5.03695 16.3531 4.84269 17.0505 4.83334 17.7625V40.2375C4.84269 40.9495 5.03695 41.6469 5.39706 42.2612C5.75718 42.8755 6.27078 43.3857 6.8875 43.7417L12.2042 46.7625C13.5931 47.5832 15.1828 48.0016 16.7958 47.9708C20.5417 47.9708 22.7167 45.675 22.7167 41.8083V19.6958C22.7167 19.5356 22.653 19.3819 22.5397 19.2686C22.4264 19.1553 22.2727 19.0917 22.1125 19.0917H19.575C19.4148 19.0917 19.2611 19.1553 19.1478 19.2686C19.0345 19.3819 18.9708 19.5356 18.9708 19.6958V41.8083C18.9708 43.6208 17.1583 45.3125 14.2583 43.8625L8.7 40.7208C8.62497 40.6646 8.56406 40.5916 8.52212 40.5077C8.48017 40.4238 8.45834 40.3313 8.45834 40.2375V17.7625C8.46665 17.5392 8.55205 17.3257 8.7 17.1583L28.6375 5.92084H29.3625L49.3 17.1583C49.448 17.3257 49.5333 17.5392 49.5417 17.7625V40.2375C49.5417 40.3313 49.5198 40.4238 49.4779 40.5077C49.4359 40.5916 49.375 40.6646 49.3 40.7208L29.3625 51.9583C29.2523 52.022 29.1273 52.0555 29 52.0555C28.8727 52.0555 28.7477 52.022 28.6375 51.9583L23.5625 49.0583C23.496 48.9989 23.41 48.966 23.3208 48.966C23.2317 48.966 23.1456 48.9989 23.0792 49.0583L20.0583 50.3875C19.6958 50.5083 19.2125 50.6292 20.1792 51.2333L26.9458 54.9792C27.5562 55.3794 28.2701 55.5926 29 55.5926C29.7299 55.5926 30.4438 55.3794 31.0542 54.9792L51.1125 43.7417C51.7292 43.3857 52.2428 42.8755 52.6029 42.2612C52.9631 41.6469 53.1573 40.9495 53.1667 40.2375V17.7625C53.1573 17.0505 52.9631 16.3531 52.6029 15.7388C52.2428 15.1245 51.7292 14.6143 51.1125 14.2583Z" fill="#8B8989"/>
<path d="M35.1625 36.6125C29.8458 36.6125 28.7583 35.4042 28.275 32.8667C28.275 32.7385 28.2241 32.6155 28.1334 32.5249C28.0428 32.4342 27.9199 32.3833 27.7917 32.3833H25.1333C25.0051 32.3833 24.8822 32.4342 24.7916 32.5249C24.7009 32.6155 24.65 32.7385 24.65 32.8667C24.65 36.1292 26.4625 40.1167 35.1625 40.1167C41.4458 40.1167 45.0708 37.7 45.0708 33.4708C45.0708 29.2417 42.1708 28.0333 36.0083 27.3083C29.8458 26.5833 29.2417 26.1 29.2417 24.65C29.2417 23.2 29.725 21.9917 34.3167 21.9917C38.9083 21.9917 39.9958 22.8375 40.6 25.4958C40.6282 25.6343 40.7042 25.7586 40.8146 25.8469C40.925 25.9352 41.0628 25.982 41.2042 25.9792H43.7417L44.225 25.7375C44.2687 25.6884 44.302 25.631 44.3228 25.5687C44.3435 25.5064 44.3514 25.4404 44.3458 25.375C43.9833 20.6625 40.7208 18.4875 34.3167 18.4875C27.9125 18.4875 25.2542 20.9042 25.2542 24.7708C25.2542 28.6375 28.6375 30.2083 34.075 30.8125C39.5125 31.4167 41.2042 32.2625 41.2042 33.5917C41.2042 34.9208 39.3917 36.6125 35.1625 36.6125Z" fill="#8B8989"/>
</g>
<defs>
<clipPath id="clip0_4_54">
<rect width="58" height="58" fill="white"/>
</clipPath>
</defs>
</svg>
