<svg width="59" height="58" viewBox="0 0 59 58" fill="none" xmlns="http://www.w3.org/2000/svg">
<g clip-path="url(#clip0_276_2)">
<path d="M42.1094 0C39.8139 0.0199375 37.5387 0.34075 35.3299 0.9715L35.1769 1.02044C33.7922 0.783 32.3818 0.6525 30.9805 0.6235C28.0803 0.574563 25.5912 1.26331 23.5852 2.41606C21.6069 1.74725 17.5064 0.574563 13.1846 0.812C10.1812 0.9715 6.89562 1.86869 4.45449 4.39894C2.03549 6.92013 0.750398 10.8279 1.01774 16.153C1.09334 17.6157 1.5174 20.0028 2.22724 23.1076C2.92787 26.2051 3.91796 29.8301 5.15696 33.1434C6.39596 36.4476 7.74743 39.4201 9.86221 41.4392C10.9168 42.4488 12.3771 43.3097 14.0955 43.2354C15.2976 43.1864 16.3817 42.6681 17.3239 41.9032C17.783 42.4977 18.2752 42.7514 18.7159 42.9889C19.2838 43.2916 19.8203 43.4982 20.3882 43.6323C21.4059 43.8861 23.1446 44.2178 25.1801 43.877C25.8715 43.7628 26.6016 43.5381 27.3317 43.2263C27.3612 44.0184 27.3907 44.8014 27.4184 45.5953C27.5235 48.0965 27.5936 50.4093 28.3495 52.4393C28.4749 52.7709 28.8123 54.4693 30.1361 55.9791C31.471 57.4889 34.0614 58.4241 37.0299 57.8006C39.1151 57.3656 41.7738 56.5736 43.542 54.1013C45.2899 51.6653 46.0771 48.1636 46.232 42.4796C46.2689 42.1678 46.3187 41.9141 46.3648 41.6676L46.7778 41.7056H46.8276C49.0548 41.7999 51.4756 41.4881 53.5019 40.5619C55.2867 39.7499 56.6418 38.9289 57.6301 37.4662C57.8716 37.1055 58.1482 36.6633 58.2182 35.9074C58.2938 35.1625 57.8513 33.9808 57.1212 33.4352C55.6628 32.3404 54.7409 32.7555 53.7508 32.9639C52.7829 33.1724 51.7909 33.2829 50.8027 33.3119C53.6439 28.6121 55.6794 23.6096 56.8428 19.1889C57.5342 16.5735 57.9196 14.1665 57.9472 12.0622C57.9859 9.95788 57.8052 8.09825 56.5257 6.48513C52.5118 1.45363 46.8736 0.054375 42.515 0.0090625C42.3804 0.0090625 42.2477 0.0090625 42.1112 0.0090625L42.1094 0ZM41.9932 1.54969C46.114 1.51163 51.3835 2.64444 55.1668 7.40044C56.0223 8.468 56.2731 10.0249 56.2436 11.9516C56.2141 13.8783 55.8509 16.1711 55.1871 18.6923C53.9112 23.5843 51.4793 29.2646 48.0721 34.3741C48.1882 34.4593 48.321 34.5336 48.4556 34.5825C49.1654 34.8743 50.7879 35.119 54.0329 34.4683C54.8497 34.2961 55.4471 34.1856 56.0703 34.6478C56.3782 34.9015 56.5404 35.2803 56.5201 35.6773C56.4833 35.9691 56.3782 36.2518 56.1938 36.4893C55.5688 37.4118 54.3335 38.2927 52.7478 39.0195C51.3466 39.6593 49.3277 39.991 47.554 40.0109C46.6524 40.02 45.8264 39.9529 45.1221 39.7354L45.0852 39.7282C44.8142 42.2856 44.1928 47.3461 43.7872 49.648C43.4627 51.5058 42.8948 52.9903 41.8107 54.0941C40.7247 55.2088 39.1981 55.8685 37.1331 56.3035C34.5795 56.8418 32.7247 56.2654 31.5263 55.274C30.3278 54.2826 29.7784 52.9613 29.4521 52.1583C29.2234 51.6019 29.1073 50.8841 28.993 49.9199C28.8768 48.9574 28.8012 47.7866 28.7422 46.4562C28.6666 44.4262 28.6371 42.3962 28.6666 40.3571C27.6028 41.3214 26.2771 41.9521 24.8537 42.1986C23.1556 42.4814 21.6475 42.1986 20.7459 41.9811C20.3034 41.8669 19.8701 41.7074 19.4681 41.4899C19.0459 41.2724 18.6514 41.0278 18.384 40.5348C18.2291 40.252 18.1831 39.9239 18.2494 39.6122C18.325 39.2914 18.5168 39.0177 18.7786 38.8093C19.2672 38.4196 19.9125 38.2057 20.8805 38.0063C22.6486 37.6456 23.2718 37.4028 23.6461 37.1073C23.9632 36.8626 24.3301 36.3533 24.9607 35.6066C24.9607 35.5794 24.9607 35.5413 24.9515 35.5123C23.8102 35.4761 22.6947 35.1843 21.6862 34.6441C21.323 35.0211 19.4294 36.9859 17.1358 39.7046C16.1752 40.8356 15.1095 41.4881 13.9775 41.5371C12.8546 41.5824 11.8332 41.0278 10.9703 40.2049C9.24271 38.5519 7.85805 35.7099 6.65777 32.4999C5.45749 29.29 4.48768 25.7139 3.78705 22.6744C3.09565 19.6239 2.68265 17.1698 2.62365 15.9899C2.36552 10.9584 3.5658 7.57081 5.61974 5.42663C7.67368 3.28244 10.4891 2.48131 13.2363 2.32181C18.1628 2.04813 22.8477 3.73738 23.7899 4.09625C25.6134 2.87825 27.966 2.12425 30.9049 2.16956C32.2988 2.1895 33.6798 2.36713 35.0349 2.69881L35.0847 2.66981C35.6802 2.47225 36.285 2.29281 36.899 2.16231C38.5712 1.77263 40.2786 1.57506 41.9877 1.54788L41.9932 1.54969ZM42.3675 3.16281H42.0043C40.6031 3.17913 39.1889 3.34225 37.8171 3.63406C40.8796 4.96625 43.1935 7.01256 44.8252 9.07156C45.9591 10.4871 46.8902 12.0441 47.6001 13.7061C47.8803 14.3496 48.0629 14.8861 48.1587 15.3011C48.2159 15.5096 48.2454 15.6872 48.2638 15.8666C48.2638 15.9609 48.2731 16.0569 48.2251 16.2164C48.2251 16.2255 48.2159 16.2454 48.2159 16.2545C48.2952 18.3697 47.7568 19.8016 47.6867 21.8225C47.6406 23.287 48.0241 25.0053 48.12 26.883C48.2067 28.6466 47.9873 30.5823 46.8239 32.4891C46.9197 32.6033 47.0064 32.7156 47.1023 32.8389C50.185 28.0611 52.4123 22.7849 53.5941 18.2809C54.2284 15.8539 54.5621 13.6554 54.5916 11.9208C54.6211 10.1826 54.2947 8.9175 53.8707 8.39006C50.5667 4.24488 46.103 3.18638 42.3657 3.161L42.3675 3.16281ZM30.5841 3.7845C27.6857 3.79356 25.6005 4.6545 24.0185 5.94681C22.3831 7.28806 21.2898 9.10963 20.5799 10.9874C19.7244 13.2059 19.4276 15.3573 19.3114 16.8218L19.3501 16.8019C20.2259 16.3216 21.3764 15.8304 22.6154 15.5567C23.8452 15.2721 25.1801 15.1869 26.3785 15.6509C27.5899 16.1023 28.5781 17.1879 28.9432 18.821C30.6745 26.6945 28.4066 29.6217 27.5714 31.8293C27.2543 32.6323 26.9759 33.4443 26.7546 34.2744C26.8597 34.2544 26.9667 34.2254 27.0718 34.2164C27.6673 34.1711 28.1264 34.3596 28.3974 34.4719C29.2437 34.8199 29.819 35.5377 30.1361 36.3588C30.2117 36.5763 30.2688 36.801 30.3076 37.0475C30.3371 37.1418 30.3573 37.2451 30.3573 37.3502C30.2615 40.3608 30.2688 43.3731 30.385 46.3837C30.444 47.6869 30.5306 48.8288 30.6357 49.735C30.7408 50.6322 30.8846 51.3209 30.9824 51.5566C31.2976 52.3305 31.7586 53.3401 32.5956 54.0288C33.4216 54.7194 34.6109 55.1725 36.792 54.7194C38.6819 54.3134 39.8453 53.7642 40.6215 52.9721C41.4014 52.1692 41.8605 51.0654 42.1573 49.3761C42.6091 46.8368 43.5014 39.4726 43.6084 38.0951C43.5623 37.0457 43.7135 36.2446 44.0601 35.6301C44.4049 35.0066 44.9432 34.6206 45.4152 34.4121C45.6439 34.3088 45.8651 34.2436 46.0476 34.1856C45.8559 33.9228 45.6549 33.6581 45.4521 33.4026C44.781 32.5996 44.2223 31.7043 43.8093 30.7509C43.6176 30.3521 43.4056 29.9552 43.1751 29.5782C42.8506 29.0036 42.4376 28.275 42.0043 27.4539C41.1396 25.8299 40.1993 23.8489 39.7088 21.9222C39.2202 19.9955 39.1539 18.0054 40.4021 16.6079C41.5065 15.3609 43.4553 14.8444 46.3629 15.1362C46.2763 14.8806 46.2302 14.6631 46.0845 14.3333C45.4226 12.8035 44.5579 11.368 43.5199 10.0648C41.0511 6.96 37.0465 3.88056 30.8736 3.77725L30.5841 3.7845ZM14.2614 3.90775C13.9535 3.90775 13.6364 3.91681 13.3303 3.93675C10.8431 4.07994 8.49968 4.785 6.81818 6.53225C5.13852 8.28856 4.03596 11.1487 4.2738 15.8974C4.32359 16.8037 4.7163 19.314 5.39665 22.3064C6.08068 25.3007 7.04865 28.8224 8.21205 31.9363C9.37177 35.0411 10.7767 37.7508 12.1208 39.034C12.7919 39.6666 13.3764 39.9312 13.9056 39.9131C14.4347 39.8841 15.0782 39.5814 15.8655 38.657C17.2962 36.9587 18.7767 35.3148 20.3126 33.7107C18.1019 31.813 17.0178 28.9456 17.4511 26.0928C17.7 24.3093 17.7387 22.6363 17.7 21.315C17.6723 20.0318 17.5838 19.1835 17.5838 18.6452C17.5838 18.6253 17.5838 18.6162 17.5838 18.5963V18.5872L17.5746 18.5709C17.5746 15.7851 18.0761 13.0301 19.0349 10.4146C19.7263 8.60938 20.7459 6.78963 22.2799 5.30519C20.7735 4.814 18.0927 4.07994 15.1943 3.93675C14.8864 3.91681 14.5675 3.90775 14.2614 3.90775ZM44.7386 16.6696C43.07 16.6986 42.1371 17.1245 41.6392 17.6701C40.946 18.4549 40.8796 19.8324 41.3129 21.5325C41.7425 23.2308 42.6386 25.1285 43.4738 26.7072C43.8868 27.4993 44.2906 28.2079 44.6151 28.7825C44.9525 29.3679 45.1921 29.7739 45.336 30.1328C45.4706 30.4536 45.6254 30.7364 45.7785 31.001C46.4219 29.6598 46.5381 28.3475 46.4699 26.97C46.3832 25.2717 45.9813 23.5335 46.0476 21.779C46.1159 19.72 46.5289 18.3788 46.5584 16.7928C45.961 16.7185 45.347 16.6696 44.7423 16.6696H44.7386ZM24.4979 16.9559C23.989 16.9559 23.4801 17.0212 22.9805 17.1354C21.9904 17.3728 21.0409 17.7299 20.1466 18.2211C19.8498 18.3806 19.5622 18.5618 19.293 18.7703L19.234 18.8156C19.2543 19.1763 19.3206 20.0245 19.3501 21.2896C19.3796 22.6671 19.3501 24.4216 19.0828 26.3211C18.4873 30.4554 21.5405 33.8738 25.1229 33.8829C25.335 33.0328 25.6779 32.1719 26.0245 31.2674C27.022 28.623 28.9819 26.6981 27.3299 19.1654C27.0626 17.9383 26.5242 17.4381 25.783 17.1553C25.37 17.0121 24.9404 16.9469 24.4979 16.9578V16.9559ZM43.9624 17.4453H44.0877C44.2408 17.4544 44.3956 17.4653 44.5284 17.5015C44.6538 17.5305 44.7699 17.5686 44.8658 17.6338C44.9617 17.69 45.0281 17.7843 45.0483 17.8966V17.9166C45.0483 18.0308 45.0188 18.1431 44.9617 18.2483C44.8861 18.3788 44.7994 18.502 44.6943 18.6053C44.4436 18.879 44.1062 19.0603 43.743 19.1146C43.3871 19.1636 43.0331 19.0693 42.7344 18.8699C42.6183 18.7829 42.504 18.6887 42.4173 18.5854C42.3306 18.5002 42.2827 18.3878 42.2624 18.2736C42.2551 18.1631 42.2827 18.0489 42.3583 17.9637C42.4468 17.8767 42.5427 17.8024 42.6478 17.7462C42.8856 17.6139 43.2027 17.5196 43.5696 17.4707C43.7024 17.4544 43.837 17.4435 43.9624 17.4344V17.4453ZM24.7357 17.8513C24.8611 17.8513 25.0068 17.8604 25.1414 17.8785C25.5249 17.9365 25.8512 18.0308 26.1093 18.1812C26.2347 18.2392 26.3509 18.3334 26.4357 18.4368C26.5316 18.5509 26.5776 18.6905 26.5703 18.8428C26.5408 18.9823 26.4818 19.1164 26.3859 19.2198C26.2808 19.343 26.1665 19.4463 26.0319 19.5315C25.7148 19.7581 25.3221 19.8523 24.9275 19.8052C24.5311 19.7399 24.1679 19.5514 23.9005 19.2596C23.7844 19.1364 23.6885 19.0041 23.6111 18.8627C23.5244 18.7304 23.4875 18.5799 23.506 18.4277C23.5447 18.1739 23.7659 18.0308 23.978 17.9564C24.2195 17.8785 24.4776 17.8531 24.7357 17.8622V17.8513ZM47.0064 35.5975H46.9972C46.6432 35.7298 46.3463 35.7788 46.0956 35.8929C45.8375 35.9872 45.6328 36.1757 45.5111 36.4095C45.347 36.685 45.2235 37.1762 45.2604 38.0136C45.3655 38.0915 45.4908 38.1459 45.6273 38.1858C46.0403 38.309 46.7501 38.3942 47.5374 38.3833C49.1027 38.3634 51.0331 38.0063 52.0601 37.5333C52.8953 37.1563 53.6826 36.6469 54.374 36.0524C50.9465 36.7412 49.0179 36.5618 47.825 36.0814C47.5374 35.9582 47.2571 35.7969 47.0064 35.5975ZM27.2635 35.8241H27.2137C27.081 35.8331 26.8966 35.8821 26.5223 36.279C25.6668 37.2215 25.37 37.816 24.6694 38.3652C23.9595 38.9216 23.0469 39.2153 21.2123 39.5832C20.6371 39.6974 20.2997 39.8279 20.0784 39.9312C20.1448 39.9892 20.1448 40.0091 20.2499 40.0544C20.5209 40.2067 20.8639 40.3299 21.1441 40.4043C21.9314 40.5928 23.2165 40.8193 24.5716 40.5928C25.9157 40.3662 27.317 39.7318 28.5191 38.0824C28.7311 37.7997 28.7477 37.3738 28.5763 36.9206C28.4048 36.4784 28.0287 36.0814 27.7706 35.9781C27.6065 35.9002 27.4331 35.8549 27.2617 35.8259L27.2635 35.8241Z" fill="#8B8989"/>
</g>
<defs>
<clipPath id="clip0_276_2">
<rect width="59" height="58" fill="white"/>
</clipPath>
</defs>
</svg>
