<svg width="59" height="58" viewBox="0 0 59 58" fill="none" xmlns="http://www.w3.org/2000/svg">
<g clip-path="url(#clip0_276_4)">
<path fill-rule="evenodd" clip-rule="evenodd" d="M37.5948 53.5282C36.1729 53.5282 35.0224 52.3916 35.0224 50.9865C35.0224 49.5814 36.1729 48.4476 37.5948 48.4476C39.0167 48.4476 40.1672 49.5814 40.1672 50.9865C40.1672 52.3916 39.0167 53.5282 37.5948 53.5282ZM29.7124 58C44.6925 58 43.7574 51.5812 43.7574 51.5812L43.7396 44.9316H29.4469V42.935H49.4155C49.4155 42.935 59 44.0108 59 29.0765C59 14.1421 50.6368 14.6685 50.6368 14.6685H45.6424V21.6013C45.6424 21.6013 45.9109 29.8652 37.4119 29.8652H23.2342C23.2342 29.8652 15.2692 29.7409 15.2692 37.4749V50.2601C15.2692 50.2601 14.0597 58 29.7124 58ZM21.4081 4.47178C22.83 4.47178 23.9776 5.60842 23.9776 7.01353C23.9776 8.41863 22.83 9.55244 21.4081 9.55244C19.9862 9.55244 18.8358 8.41863 18.8358 7.01353C18.8358 5.60842 19.9862 4.47178 21.4081 4.47178ZM29.2876 0C14.3105 0 15.2456 6.4188 15.2456 6.4188L15.2633 13.0684H29.5561V15.065H9.58453C9.58453 15.065 0 13.9892 0 28.9235C0 43.8579 8.3662 43.3315 8.3662 43.3315H13.3576V36.3987C13.3576 36.3987 13.0892 28.1348 21.5911 28.1348H35.7658C35.7658 28.1348 43.7308 28.2591 43.7308 20.5251V7.73994C43.7308 7.73994 44.9403 0 29.2876 0Z" fill="#8B8989"/>
</g>
<defs>
<clipPath id="clip0_276_4">
<rect width="59" height="58" fill="white"/>
</clipPath>
</defs>
</svg>
