<svg width="58" height="58" viewBox="0 0 58 58" fill="none" xmlns="http://www.w3.org/2000/svg">
<g clipPath="url(#clip0_4_43)">
<path d="M29 24.4325C29.8917 24.4326 30.7635 24.6964 31.5056 25.1909C32.2477 25.6854 32.8269 26.3883 33.1703 27.2113C33.5138 28.0342 33.606 28.9404 33.4355 29.8157C33.265 30.691 32.8394 31.4963 32.2122 32.1302C31.585 32.7641 30.7843 33.1982 29.9109 33.378C29.0375 33.5578 28.1304 33.4752 27.3038 33.1406C26.4773 32.8059 25.7682 32.2342 25.2658 31.4974C24.7635 30.7606 24.4904 29.8917 24.4808 29C24.4776 28.4034 24.592 27.8119 24.8174 27.2595C25.0428 26.7071 25.3748 26.2044 25.7944 25.7803C26.2141 25.3562 26.7132 25.0188 27.2632 24.7876C27.8132 24.5563 28.4034 24.4357 29 24.4325ZM17.8108 48.3333C19.3333 49.2517 22.6442 47.85 26.5108 44.225C25.2185 42.7564 24.0006 41.2239 22.8617 39.6333C20.9124 39.415 18.9763 39.0924 17.0617 38.6667C15.8292 43.8383 16.2883 47.3908 17.8108 48.3333ZM19.5267 34.4617L18.8258 33.2292C18.5526 33.908 18.3186 34.6019 18.125 35.3075C18.7775 35.4525 19.5025 35.5733 20.2517 35.6942L19.5267 34.4617ZM35.3317 32.625L37.2892 29L35.3317 25.375C34.6067 24.0942 33.8333 22.9583 33.1325 21.8225C31.8275 21.75 30.45 21.75 29 21.75C27.55 21.75 26.1725 21.75 24.8675 21.75C24.1667 22.8858 23.3933 24.0217 22.6683 25.3025L20.7108 29L22.6683 32.625C23.3933 33.9058 24.1667 35.0417 24.8675 36.1775C26.1725 36.1775 27.55 36.1775 29 36.1775C30.45 36.1775 31.8275 36.1775 33.1325 36.1775C33.8333 35.0417 34.6067 33.9058 35.3317 32.625ZM29 16.385C28.5408 16.9167 28.0575 17.4725 27.5742 18.125H30.4258C29.9425 17.4725 29.4592 16.9167 29 16.385ZM29 41.615C29.4592 41.0833 29.9425 40.5275 30.4258 39.875H27.5742C28.0575 40.5275 28.5408 41.0833 29 41.615ZM40.165 9.66668C38.6667 8.74835 35.3317 10.15 31.4892 13.775C32.7815 15.2436 33.9994 16.7761 35.1383 18.3667C37.0858 18.5531 39.0219 18.8435 40.9383 19.2367C42.1708 14.065 41.7117 10.5125 40.165 9.57001M38.4733 23.4417L39.1742 24.6742C39.4474 23.9954 39.6814 23.3015 39.875 22.5958C39.2225 22.4508 38.4975 22.33 37.7483 22.2092L38.4733 23.4417ZM41.9775 6.52501C45.53 8.55501 45.9167 13.8958 44.3942 20.1308C50.5325 21.9433 54.955 24.9642 54.955 29.0242C54.955 33.0842 50.5325 36.105 44.3942 37.9175C45.8925 44.1525 45.5058 49.4933 41.9775 51.5233C38.4492 53.5533 33.64 51.2333 29 46.8108C24.36 51.2333 19.5508 53.5533 15.9983 51.5233C12.4458 49.4933 12.0833 44.2733 13.5817 37.9175C7.44333 36.105 3.02083 33.0842 3.02083 29.0242C3.02083 24.9642 7.44333 21.9192 13.5817 20.1067C12.0833 13.8717 12.47 8.53085 15.9983 6.50085C19.5267 4.47085 24.36 6.79085 29 11.2133C33.64 6.79085 38.4492 4.47085 41.9775 6.50085M41.2767 29C42.116 30.779 42.8582 32.6023 43.5 34.4617C48.575 32.9392 51.4267 30.7642 51.4267 29C51.4267 27.2358 48.5025 25.0608 43.5 23.5383C42.8582 25.3978 42.116 27.221 41.2767 29ZM16.7233 29C15.884 27.221 15.1418 25.3978 14.5 23.5383C9.425 25.0608 6.57333 27.2358 6.57333 29C6.57333 30.7642 9.4975 32.9392 14.5 34.4617C15.1418 32.6023 15.884 30.779 16.7233 29ZM38.4733 34.4617L37.7483 35.6942C38.4975 35.6942 39.2225 35.4525 39.875 35.3075C39.6814 34.6019 39.4474 33.908 39.1742 33.2292L38.4733 34.4617ZM31.4167 44.225C35.2592 47.85 38.6667 49.2517 40.0925 48.3333C41.5183 47.415 42.0983 43.935 40.8658 38.6667C38.9494 39.0599 37.0133 39.3503 35.0658 39.5367C33.9296 41.1602 32.7116 42.725 31.4167 44.225ZM19.5267 23.5383L20.2517 22.3058C19.5025 22.3058 18.7775 22.5475 18.125 22.6925C18.3186 23.3981 18.5526 24.0921 18.8258 24.7708L19.5267 23.5383ZM26.5833 13.775C22.6683 10.15 19.3333 8.74835 17.8108 9.66668C16.2883 10.585 15.8292 14.065 17.0617 19.3333C18.9781 18.9401 20.9142 18.6497 22.8617 18.4633C24.0214 16.8381 25.2636 15.2733 26.5833 13.775Z" fill="#8B8989"/>
</g>
<defs>
<clipPath id="clip0_4_43">
<rect width="58" height="58" fill="white"/>
</clipPath>
</defs>
</svg>
